<svg xmlns="http://www.w3.org/2000/svg" width="64" height="64" viewBox="0 0 64 64" fill="none" shape-rendering="geometricPrecision">
  <title>Fuel price</title>
  <rect x="10.5" y="10.5" width="27" height="43" rx="3.5" fill="#38BDF8" stroke="#075985" stroke-width="2.5"/>
  <rect x="15" y="15.5" width="18" height="12" rx="1.5" fill="#FFFFFF" stroke="#075985" stroke-width="2"/>
  <path d="M18.5 21.5h3M25 21.5h4.5" stroke="#7CC8DA" stroke-width="1.8" stroke-linecap="round"/>
  <path d="M15 35h18M7.5 53.5h33" stroke="#075985" stroke-width="2.5" stroke-linecap="round"/>
  <path d="M37.5 17.5h2.8c3.8 0 6.8 3 6.8 6.8V40c0 3.5 2 5.8 4.7 5.8 2.8 0 5-2.2 5-5V29.5" stroke="#075985" stroke-width="2.7" stroke-linecap="round"/>
  <path d="m50.5 15 6.3 6.5v8h-6.3V15Z" fill="#E0F2FE" stroke="#075985" stroke-width="2.3" stroke-linejoin="round"/>
  <path d="M20.5 44.2c0-3 3.5-5.8 3.5-8.6 0 2.8 3.6 5.6 3.6 8.6a3.6 3.6 0 0 1-7.1 0Z" fill="#FBBF24" stroke="#A16207" stroke-width="1.8" stroke-linejoin="round"/>
  <circle cx="44" cy="13.5" r="9" fill="#FBBF24" stroke="#A16207" stroke-width="2.2"/>
  <path d="M46.8 10.3c-.7-.7-1.7-1.1-2.9-1.1-1.7 0-2.8.8-2.8 2 0 1.1.9 1.7 2.8 2.1 1.8.4 2.8 1 2.8 2.3 0 1.3-1.2 2.2-3 2.2-1.3 0-2.4-.4-3.2-1.2M43.8 7.2v12.4" stroke="#7C4A03" stroke-width="1.8" stroke-linecap="round"/>
</svg>
