<svg xmlns="http://www.w3.org/2000/svg" width="64" height="64" viewBox="0 0 64 64" fill="none" shape-rendering="geometricPrecision">
  <title>Trip distance</title>
  <path d="m7.5 16.5 16.5-6 16 6 16.5-6v38L40 54.5l-16-6-16.5 6v-38Z" fill="#FFFFFF" stroke="#075985" stroke-width="2.5" stroke-linejoin="round"/>
  <path d="m8.8 17.4 14-5.1v34.8l-14 5.1V17.4Z" fill="#E0F2FE"/>
  <path d="m25.2 12.3 13.6 5.1v34.8l-13.6-5.1V12.3Z" fill="#FFF7E0"/>
  <path d="m41.2 17.4 14-5.1v34.8l-14 5.1V17.4Z" fill="#E6F7F1"/>
  <path d="M24 10.5v38M40 16.5v38" stroke="#075985" stroke-width="2.5" stroke-linejoin="round"/>
  <path d="M11.5 43.5c3.8-2.2 7.1-2.4 10.4-1.1M27 20.5c3.1 1.6 6.1 2.4 9.5 2.7M43.5 46c3.1-1.4 5.8-3.1 9.2-3.8" stroke="#7CC8DA" stroke-width="1.4" stroke-linecap="round"/>
  <path d="M15 34.5c3.5 4.8 8.1 5.7 12.2 3.3 4.5-2.6 6.7 2.9 11.4 2.5 4.8-.4 5.4-5.7 10.8-6.4" stroke="#0284C7" stroke-width="2.2" stroke-linecap="round" stroke-dasharray="2.3 3.5"/>
  <circle cx="15" cy="34.5" r="3.8" fill="#34D399" stroke="#075985" stroke-width="2"/>
  <circle cx="15" cy="34.5" r="1.2" fill="#FFFFFF"/>
  <path d="M49.5 39.6c-4.7-5.3-6.8-9.1-6.8-12.7a6.8 6.8 0 1 1 13.6 0c0 3.6-2.1 7.4-6.8 12.7Z" fill="#38BDF8" stroke="#075985" stroke-width="2.3" stroke-linejoin="round"/>
  <circle cx="49.5" cy="26.9" r="2.1" fill="#FFFFFF"/>
</svg>
